<?xml version="1.0" encoding="UTF-8" standalone="no"?>
<!-- Created with Inkscape (http://www.inkscape.org/) -->

<svg
   xmlns:dc="http://purl.org/dc/elements/1.1/"
   xmlns:cc="http://creativecommons.org/ns#"
   xmlns:rdf="http://www.w3.org/1999/02/22-rdf-syntax-ns#"
   xmlns:svg="http://www.w3.org/2000/svg"
   xmlns="http://www.w3.org/2000/svg"
   xmlns:xlink="http://www.w3.org/1999/xlink"
   xmlns:sodipodi="http://sodipodi.sourceforge.net/DTD/sodipodi-0.dtd"
   xmlns:inkscape="http://www.inkscape.org/namespaces/inkscape"
   width="233.45563"
   height="51.366325"
   viewBox="0 0 61.768468 13.590674"
   version="1.1"
   id="svg8"
   inkscape:version="0.92.2 5c3e80d, 2017-08-06"
   sodipodi:docname="flora-categories.svg">
  <defs
     id="defs2">
    <linearGradient
       inkscape:collect="always"
       id="linearGradient1373">
      <stop
         style="stop-color:#000000;stop-opacity:0.70707071"
         offset="0"
         id="stop1369" />
      <stop
         style="stop-color:#000000;stop-opacity:0;"
         offset="1"
         id="stop1371" />
    </linearGradient>
    <linearGradient
       inkscape:collect="always"
       xlink:href="#linearGradient1373"
       id="linearGradient1375"
       x1="44.223213"
       y1="102.47934"
       x2="44.149815"
       y2="83.580536"
       gradientUnits="userSpaceOnUse" />
    <clipPath
       clipPathUnits="userSpaceOnUse"
       id="clipPath1383">
      <rect
         style="opacity:1;fill:#4db690;fill-opacity:1;stroke:none;stroke-width:7.9375;stroke-linecap:round;stroke-linejoin:round;stroke-miterlimit:4;stroke-dasharray:none;stroke-opacity:1;paint-order:stroke fill markers"
         id="rect1385"
         width="76.655762"
         height="76.655762"
         x="1.8898809"
         y="26.005493"
         rx="9.0103779"
         ry="9.0103779" />
    </clipPath>
    <clipPath
       clipPathUnits="userSpaceOnUse"
       id="clipPath1391">
      <rect
         style="opacity:1;fill:#4db690;fill-opacity:1;stroke:none;stroke-width:7.9375;stroke-linecap:round;stroke-linejoin:round;stroke-miterlimit:4;stroke-dasharray:none;stroke-opacity:1;paint-order:stroke fill markers"
         id="rect1393"
         width="76.655769"
         height="76.655769"
         x="79.563454"
         y="26.005493"
         rx="8.537919"
         ry="8.537919" />
    </clipPath>
    <clipPath
       clipPathUnits="userSpaceOnUse"
       id="clipPath1397">
      <rect
         style="opacity:1;fill:#4db690;fill-opacity:1;stroke:none;stroke-width:7.9375;stroke-linecap:round;stroke-linejoin:round;stroke-miterlimit:4;stroke-dasharray:none;stroke-opacity:1;paint-order:stroke fill markers"
         id="rect1399"
         width="76.655769"
         height="76.655769"
         x="1.8898809"
         y="103.67899"
         rx="8.537919"
         ry="8.537919" />
    </clipPath>
    <clipPath
       clipPathUnits="userSpaceOnUse"
       id="clipPath1403">
      <rect
         style="opacity:1;fill:#4db690;fill-opacity:1;stroke:none;stroke-width:7.9375;stroke-linecap:round;stroke-linejoin:round;stroke-miterlimit:4;stroke-dasharray:none;stroke-opacity:1;paint-order:stroke fill markers"
         id="rect1405"
         width="76.655769"
         height="76.655769"
         x="79.563454"
         y="103.6386"
         rx="8.537919"
         ry="8.537919" />
    </clipPath>
    <clipPath
       clipPathUnits="userSpaceOnUse"
       id="clipPath1421">
      <rect
         style="opacity:1;fill:#4db690;fill-opacity:1;stroke:none;stroke-width:7.9375;stroke-linecap:round;stroke-linejoin:round;stroke-miterlimit:4;stroke-dasharray:none;stroke-opacity:1;paint-order:stroke fill markers"
         id="rect1423"
         width="76.655769"
         height="76.655769"
         x="1.8898809"
         y="181.39308"
         rx="8.537919"
         ry="8.537919" />
    </clipPath>
    <clipPath
       clipPathUnits="userSpaceOnUse"
       id="clipPath1431">
      <rect
         style="opacity:1;fill:#4db690;fill-opacity:1;stroke:none;stroke-width:7.95704508;stroke-linecap:round;stroke-linejoin:round;stroke-miterlimit:4;stroke-dasharray:none;stroke-opacity:1;paint-order:stroke fill markers"
         id="rect1433"
         width="76.655769"
         height="77.033745"
         x="79.603981"
         y="181.05138"
         rx="8.537919"
         ry="8.5800171" />
    </clipPath>
    <filter
       style="color-interpolation-filters:sRGB"
       inkscape:label="Drop Shadow"
       id="filter1485">
      <feFlood
         flood-opacity="0.25"
         flood-color="rgb(0,0,0)"
         result="flood"
         id="feFlood1475" />
      <feComposite
         in="flood"
         in2="SourceGraphic"
         operator="in"
         result="composite1"
         id="feComposite1477" />
      <feGaussianBlur
         in="composite1"
         stdDeviation="1"
         result="blur"
         id="feGaussianBlur1479" />
      <feOffset
         dx="0"
         dy="1"
         result="offset"
         id="feOffset1481" />
      <feComposite
         in="SourceGraphic"
         in2="offset"
         operator="over"
         result="composite2"
         id="feComposite1483" />
    </filter>
  </defs>
  <sodipodi:namedview
     id="base"
     pagecolor="#ffffff"
     bordercolor="#666666"
     borderopacity="1.0"
     inkscape:pageopacity="0.0"
     inkscape:pageshadow="2"
     inkscape:zoom="1.006669"
     inkscape:cx="-77.376485"
     inkscape:cy="67.748749"
     inkscape:document-units="mm"
     inkscape:current-layer="g896"
     showgrid="false"
     inkscape:window-width="1680"
     inkscape:window-height="1005"
     inkscape:window-x="0"
     inkscape:window-y="1"
     inkscape:window-maximized="1"
     units="px"
     fit-margin-top="0"
     fit-margin-left="0"
     fit-margin-right="0"
     fit-margin-bottom="0" />
  <metadata
     id="metadata5">
    <rdf:RDF>
      <cc:Work
         rdf:about="">
        <dc:format>image/svg+xml</dc:format>
        <dc:type
           rdf:resource="http://purl.org/dc/dcmitype/StillImage" />
        <dc:title />
      </cc:Work>
    </rdf:RDF>
  </metadata>
  <g
     inkscape:label="Layer 1"
     inkscape:groupmode="layer"
     id="layer1"
     transform="translate(-48.441319,-102.29259)">
    <g
       id="g896">
      <rect
         ry="6.0453367"
         rx="6.0453377"
         y="103.04259"
         x="49.191319"
         height="12.090673"
         width="60.268467"
         id="rect1721"
         style="opacity:1;fill:none;fill-opacity:1;stroke:#ff5555;stroke-width:0.79375;stroke-linecap:round;stroke-linejoin:round;stroke-miterlimit:4;stroke-dasharray:none;stroke-opacity:1;paint-order:fill markers stroke" />
    </g>
    <path
       id="path871"
       style="font-style:normal;font-variant:normal;font-weight:normal;font-stretch:normal;font-size:medium;line-height:1.25;font-family:'Tw Cen MT Condensed';-inkscape-font-specification:'Tw Cen MT Condensed, Bold';letter-spacing:0px;word-spacing:0px;fill:#ff5555;fill-opacity:1;stroke:none;stroke-width:0.24687026"
       d="m 102.89482,108.4302 q -0.36163,-0.14947 -0.622,-0.14947 -0.25073,0 -0.40502,0.12537 -0.14947,0.12536 -0.14947,0.34234 0,0.17358 0.12536,0.34234 0.13019,0.16875 0.52556,0.51592 0.4002,0.34234 0.56414,0.61717 0.16876,0.27002 0.16876,0.59789 0,0.49663 -0.33752,0.82451 -0.33752,0.32787 -0.85826,0.32787 -0.33752,0 -0.79075,-0.1784 v -0.65093 q 0.43877,0.17841 0.74253,0.17841 0.22662,0 0.35199,-0.12055 0.13018,-0.12536 0.13018,-0.33269 0,-0.19287 -0.16876,-0.40985 -0.16875,-0.21697 -0.58824,-0.55449 -0.60271,-0.48699 -0.60271,-1.11863 0,-0.49663 0.32787,-0.82451 0.3327,-0.3327 0.82451,-0.3327 0.30377,0 0.76183,0.15912 z m -3.028021,1.52848 h -1.77438 q 0,0.68468 0.09161,1.03666 0.09643,0.34716 0.448416,0.34716 0.270015,0 0.366448,-0.20251 0.09643,-0.20251 0.101256,-0.63646 h 0.718431 q -0.03375,1.48026 -1.253638,1.48026 -1.311499,0 -1.311499,-2.07333 0,-2.26137 1.359716,-2.26137 0.51592,0 0.882368,0.39056 0.37127,0.39055 0.37127,1.61526 z m -0.795578,-0.61236 q 0,-0.62681 -0.101256,-0.89683 -0.101255,-0.27483 -0.366448,-0.27483 -0.313409,0 -0.414665,0.2893 -0.09643,0.28448 -0.09643,0.88236 z m -3.650017,-2.92194 q 0,-0.17358 0.125364,-0.30376 0.130185,-0.13019 0.308588,-0.13019 0.178402,0 0.303766,0.13019 0.130185,0.13018 0.130185,0.30376 0,0.17841 -0.130185,0.30859 -0.125364,0.12537 -0.303766,0.12537 -0.183224,0 -0.308588,-0.12537 -0.125364,-0.13018 -0.125364,-0.30859 z m 0.03857,1.28739 h 0.781113 v 4.21416 h -0.781113 z m -0.911293,0.622 q -0.54485,0.0145 -0.776291,0.20733 -0.231441,0.19287 -0.231441,0.85826 v 2.52657 h -0.8004 v -4.21416 h 0.8004 v 0.622 h 0.01929 q 0.347161,-0.68468 0.935406,-0.68468 l 0.05304,0.01 z m -4.132185,-0.69432 q 0.602711,0 0.969159,0.45806 0.366448,0.45806 0.366448,1.77438 0,1.23435 -0.385735,1.67312 -0.380913,0.43878 -0.940228,0.43878 -0.699145,0 -1.036663,-0.52557 -0.337518,-0.52556 -0.337518,-1.61526 0,-1.33561 0.385735,-1.76956 0.385735,-0.43395 0.959516,-0.43395 z m 0.496634,2.43013 q 0,-1.07524 -0.101255,-1.42722 -0.101256,-0.35198 -0.405022,-0.35198 -0.289301,0 -0.395378,0.27483 -0.106077,0.27484 -0.106077,0.93059 0,1.27774 0.11572,1.56222 0.120542,0.28448 0.395378,0.28448 0.294123,0 0.395379,-0.28448 0.101255,-0.2893 0.101255,-0.98844 z m -2.661571,2.39155 q 0,0.65575 -0.303766,0.9547 -0.303766,0.29894 -0.969159,0.29894 -0.708788,0 -1.012554,-0.27001 -0.303766,-0.27002 -0.298944,-0.99327 h 0.757004 q 0.03857,0.6895 0.535207,0.6895 0.511099,0 0.511099,-0.51592 v -1.26328 h -0.01929 q -0.231441,0.622 -0.819686,0.622 -0.405022,0 -0.68468,-0.39056 -0.279657,-0.39056 -0.279657,-1.86117 0,-1.32596 0.255549,-1.70206 0.255549,-0.38091 0.718431,-0.38091 0.318231,0 0.477347,0.11572 0.163937,0.11572 0.332696,0.37127 h 0.01929 v -0.42431 h 0.781113 z m -1.253638,-1.20542 q 0.274836,0 0.37127,-0.29894 0.101255,-0.30377 0.101255,-1.01738 0,-1.01737 -0.09161,-1.3356 -0.08679,-0.32306 -0.380913,-0.32306 -0.270015,0 -0.385735,0.31341 -0.11572,0.30859 -0.11572,0.99327 0,0.90648 0.08197,1.28739 0.08679,0.38091 0.419487,0.38091 z m -2.155293,-1.29703 h -1.77438 q 0,0.68468 0.09161,1.03666 0.09643,0.34716 0.448417,0.34716 0.270014,0 0.366448,-0.20251 0.09643,-0.20251 0.101256,-0.63646 h 0.718431 q -0.03375,1.48026 -1.253639,1.48026 -1.311498,0 -1.311498,-2.07333 0,-2.26137 1.359715,-2.26137 0.515921,0 0.882369,0.39056 0.371269,0.39055 0.371269,1.61526 z m -0.795578,-0.61236 q 0,-0.62681 -0.101255,-0.89683 -0.101255,-0.27483 -0.366448,-0.27483 -0.31341,0 -0.414665,0.2893 -0.09643,0.28448 -0.09643,0.88236 z m -2.536207,-1.01255 h -0.511099 v 3.59216 h -0.790756 v -3.59216 h -0.506277 v -0.622 h 0.506277 v -1.14756 h 0.790756 v 1.14756 h 0.511099 z m -2.55067,3.59216 h -0.785935 v -0.5111 h -0.02411 q -0.303766,0.56896 -0.785935,0.56896 -0.409843,0 -0.723253,-0.38092 -0.313409,-0.38573 -0.313409,-1.72134 0,-1.18613 0.236263,-1.70687 0.236262,-0.52557 0.810043,-0.52557 0.270014,0 0.433951,0.12537 0.168759,0.12536 0.34234,0.4002 h 0.02411 v -0.46289 h 0.785935 z m -1.292212,-0.63164 q 0.303767,0 0.405022,-0.36163 0.101255,-0.36163 0.101255,-1.22953 0,-0.76183 -0.09161,-1.07041 -0.09161,-0.31341 -0.385734,-0.31341 -0.294123,0 -0.409844,0.2893 -0.110898,0.2893 -0.110898,1.0463 0,0.89201 0.08679,1.26811 0.09161,0.37127 0.405021,0.37127 z m -2.251727,0.52074 q -0.37127,0.1784 -0.742539,0.1784 -0.74254,0 -1.28739,-0.57378 -0.540029,-0.57378 -0.540029,-2.39638 0,-1.97689 0.540029,-2.66157 0.54485,-0.68468 1.31632,-0.68468 0.289301,0 0.713609,0.0964 v 0.75218 q -0.279658,-0.1109 -0.525564,-0.1109 -0.482168,0 -0.824508,0.49181 -0.342339,0.48699 -0.342339,1.92868 0,0.85826 0.07232,1.34525 0.07715,0.48216 0.347161,0.77147 0.270015,0.28448 0.679858,0.28448 0.241084,0 0.593067,-0.14948 z m -5.472613,0.1109 h -0.785935 v -0.5111 h -0.02411 q -0.303766,0.56896 -0.785935,0.56896 -0.409843,0 -0.723252,-0.38092 -0.31341,-0.38573 -0.31341,-1.72134 0,-1.18613 0.236263,-1.70687 0.236262,-0.52557 0.810043,-0.52557 0.270014,0 0.433951,0.12537 0.168759,0.12536 0.34234,0.4002 h 0.02411 v -0.46289 h 0.785935 z m -1.292212,-0.63164 q 0.303767,0 0.405022,-0.36163 0.101255,-0.36163 0.101255,-1.22953 0,-0.76183 -0.09161,-1.07041 -0.09161,-0.31341 -0.385734,-0.31341 -0.294123,0 -0.409844,0.2893 -0.110898,0.2893 -0.110898,1.0463 0,0.89201 0.08679,1.26811 0.09161,0.37127 0.405021,0.37127 z m -1.991356,-2.96052 q -0.54485,0.0145 -0.776291,0.20733 -0.231441,0.19287 -0.231441,0.85826 v 2.52657 h -0.8004 v -4.21416 h 0.8004 v 0.622 h 0.01929 q 0.347161,-0.68468 0.935406,-0.68468 l 0.05304,0.01 z m -4.122541,-0.69432 q 0.602711,0 0.969159,0.45806 0.366448,0.45806 0.366448,1.77438 0,1.23435 -0.385735,1.67312 -0.380913,0.43878 -0.940228,0.43878 -0.699145,0 -1.036663,-0.52557 -0.337517,-0.52556 -0.337517,-1.61526 0,-1.33561 0.385734,-1.76956 0.385735,-0.43395 0.959516,-0.43395 z m 0.496634,2.43013 q 0,-1.07524 -0.101255,-1.42722 -0.101256,-0.35198 -0.405022,-0.35198 -0.289301,0 -0.395378,0.27483 -0.106077,0.27484 -0.106077,0.93059 0,1.27774 0.11572,1.56222 0.120542,0.28448 0.395378,0.28448 0.294123,0 0.395379,-0.28448 0.101255,-0.2893 0.101255,-0.98844 z m -2.811042,1.85635 h -0.790757 v -6.35981 h 0.790757 z m -1.711699,-5.43886 h -1.412753 v 1.93349 h 1.263281 v 0.69915 h -1.263281 v 2.80622 h -0.819687 v -6.14283 h 2.23244 z" />
    <text
       inkscape:export-ydpi="180"
       inkscape:export-xdpi="180"
       xml:space="preserve"
       style="font-style:normal;font-variant:normal;font-weight:normal;font-stretch:normal;font-size:19.84558487px;line-height:1.25;font-family:'Sitka Subheading';-inkscape-font-specification:'Sitka Subheading';letter-spacing:0px;word-spacing:0px;fill:#4db690;fill-opacity:1;stroke:none;stroke-width:0.49613962"
       x="316.15054"
       y="223.2659"
       id="text1193"><tspan
         sodipodi:role="line"
         id="tspan1191"
         x="316.15054"
         y="240.82458"
         style="font-style:normal;font-variant:normal;font-weight:bold;font-stretch:normal;font-family:'Tw Cen MT Condensed';-inkscape-font-specification:'Tw Cen MT Condensed, Bold';fill:#4db690;fill-opacity:1;stroke-width:0.49613962" /></text>
  </g>
</svg>
