<?xml version="1.0" encoding="UTF-8" standalone="no"?>
<!-- Generator: Adobe Illustrator 19.0.0, SVG Export Plug-In . SVG Version: 6.00 Build 0)  -->

<svg
   xmlns:dc="http://purl.org/dc/elements/1.1/"
   xmlns:cc="http://creativecommons.org/ns#"
   xmlns:rdf="http://www.w3.org/1999/02/22-rdf-syntax-ns#"
   xmlns:svg="http://www.w3.org/2000/svg"
   xmlns="http://www.w3.org/2000/svg"
   xmlns:sodipodi="http://sodipodi.sourceforge.net/DTD/sodipodi-0.dtd"
   xmlns:inkscape="http://www.inkscape.org/namespaces/inkscape"
   version="1.1"
   id="Capa_1"
   x="0px"
   y="0px"
   viewBox="0 0 537.9444 537.9444"
   xml:space="preserve"
   sodipodi:docname="search.svg"
   width="537.9444"
   height="537.9444"
   inkscape:version="0.92.2 5c3e80d, 2017-08-06"><metadata
     id="metadata43"><rdf:RDF><cc:Work
         rdf:about=""><dc:format>image/svg+xml</dc:format><dc:type
           rdf:resource="http://purl.org/dc/dcmitype/StillImage" /><dc:title /></cc:Work></rdf:RDF></metadata><defs
     id="defs41" /><sodipodi:namedview
     pagecolor="#ffffff"
     bordercolor="#666666"
     borderopacity="1"
     objecttolerance="10"
     gridtolerance="10"
     guidetolerance="10"
     inkscape:pageopacity="0"
     inkscape:pageshadow="2"
     inkscape:window-width="1680"
     inkscape:window-height="1005"
     id="namedview39"
     showgrid="false"
     fit-margin-top="0"
     fit-margin-left="0"
     fit-margin-right="0"
     fit-margin-bottom="0"
     inkscape:zoom="0.6325043"
     inkscape:cx="241.89558"
     inkscape:cy="235.31531"
     inkscape:window-x="0"
     inkscape:window-y="1"
     inkscape:window-maximized="1"
     inkscape:current-layer="Capa_1" /><circle
     style="fill:#000000;fill-opacity:0.43601894;stroke-width:4.02666044;stroke-miterlimit:4;stroke-dasharray:none;paint-order:fill markers stroke"
     id="path850"
     cx="268.9722"
     cy="268.9722"
     r="268.9722" /><g
     id="g6"
     style="fill:#ffffff"
     transform="matrix(0.83898305,0,0,0.87288136,112.45152,102.12745)"><g
       id="g4"
       style="fill:#ffffff"><path
         d="m 266.667,234.667 h -16.96 L 243.84,228.8 c 20.907,-24.213 33.493,-55.68 33.493,-90.133 C 277.333,62.08 215.253,0 138.667,0 62.081,0 0,62.08 0,138.667 c 0,76.587 62.08,138.667 138.667,138.667 34.453,0 65.92,-12.587 90.133,-33.387 l 5.867,5.867 v 16.853 L 341.333,373.12 373.12,341.333 Z m -128,0 c -53.013,0 -96,-42.987 -96,-96 0,-53.013 42.987,-96 96,-96 53.013,0 96,42.987 96,96 0,53.013 -42.987,96 -96,96 z"
         id="path2"
         style="fill:#ffffff"
         inkscape:connector-curvature="0" /></g></g><g
     id="g8"
     transform="translate(570.7471,116.06909)" /><g
     id="g10"
     transform="translate(570.7471,116.06909)" /><g
     id="g12"
     transform="translate(570.7471,116.06909)" /><g
     id="g14"
     transform="translate(570.7471,116.06909)" /><g
     id="g16"
     transform="translate(570.7471,116.06909)" /><g
     id="g18"
     transform="translate(570.7471,116.06909)" /><g
     id="g20"
     transform="translate(570.7471,116.06909)" /><g
     id="g22"
     transform="translate(570.7471,116.06909)" /><g
     id="g24"
     transform="translate(570.7471,116.06909)" /><g
     id="g26"
     transform="translate(570.7471,116.06909)" /><g
     id="g28"
     transform="translate(570.7471,116.06909)" /><g
     id="g30"
     transform="translate(570.7471,116.06909)" /><g
     id="g32"
     transform="translate(570.7471,116.06909)" /><g
     id="g34"
     transform="translate(570.7471,116.06909)" /><g
     id="g36"
     transform="translate(570.7471,116.06909)" /></svg>